<svg width="464.001" height="464.001" xmlns="http://www.w3.org/2000/svg">

 <g>
  <title>background</title>
  <rect fill="none" id="canvas_background" height="466.001" width="466.001" y="-1" x="-1"/>
 </g>
 <g>
  <title>Layer 1</title>
  <g id="svg_1">
   <g id="svg_2">
    <path id="svg_3" fill="#734A3E" d="m104.001,176c0,0 -16,-65.474 -16,-88c0,-48.333 40,-48 40,-48l0.007,-0.007c23.827,-39.826 111.993,-39.993 111.993,-39.993l8,16c44,-14 104,-16 104,-16s11.5,16 16,40c9.325,49.735 -8,136 -8,136l-256,0z"/>
   </g>
   <g id="svg_4">
    <path id="svg_5" fill="#623F33" d="m240.001,0c0,0 -88.5,0 -111.993,39.993l-0.007,0.007c0,0 -40,-0.333 -40,48c0,22.526 16,88 16,88l51.636,0l52.364,-72c0,0 80.667,-41.334 144,-104c0,0 -60,2 -104,16l-8,-16z"/>
   </g>
   <path id="svg_6" fill="#F6B47B" d="m391.864,422.878l-0.726,-6.536c-0.287,-2.585 -2.616,-4.449 -5.201,-4.162l-0.407,0.045l-7.027,-56.214c-1.529,-12.228 -9.943,-22.492 -21.633,-26.389l-46.011,-15.337l1.143,-2.285l-17.344,-11.563c-3.676,-2.451 -8.643,-1.458 -11.094,2.219l-2.444,3.666c-0.72,-1.829 -1.118,-3.806 -1.118,-5.854l0,-25.802l34.461,-14.358c17.887,-7.453 29.538,-24.93 29.538,-44.308l0,-8c13.255,0 24,-10.745 24,-24c0,-6.325 -2.451,-12.075 -6.45,-16.362c4.032,-22.84 14.019,-87.271 6.45,-127.638c-4.5,-24 -16,-40 -16,-40s-60,2 -104,16l-8,-16c0,0 -88.5,0 -111.993,39.993l0,0l-0.007,0.007c0,0 -0.01,0 -0.029,0c-0.038,0 -0.115,0 -0.226,0.003s-0.259,0.007 -0.439,0.014c-0.18,0.008 -0.393,0.019 -0.637,0.035c-0.122,0.008 -0.251,0.017 -0.388,0.028c-0.41,0.032 -0.886,0.077 -1.42,0.139c-0.356,0.042 -0.737,0.091 -1.142,0.15c-0.405,0.059 -0.833,0.127 -1.281,0.206c-0.449,0.08 -0.918,0.169 -1.406,0.272c-9.753,2.05 -26.831,9.054 -31.702,32.976c-0.122,0.598 -0.236,1.207 -0.342,1.826c-0.319,1.858 -0.566,3.813 -0.733,5.87s-0.255,4.215 -0.255,6.481c0,1.76 0.098,3.782 0.278,6.014s0.443,4.675 0.772,7.277c0.066,0.521 0.135,1.047 0.206,1.58c1.566,11.717 4.372,26.308 7.119,39.367c0.125,0.594 0.25,1.184 0.374,1.771c1.868,8.803 3.68,16.801 5.026,22.598c0.113,0.487 0.222,0.953 0.328,1.409c-3.793,4.243 -6.103,9.843 -6.103,15.984c0,13.255 10.745,24 24,24l0,8c0,19.377 11.651,36.854 29.538,44.308l34.462,14.36l0,25.801c0,2.049 -0.398,4.026 -1.118,5.854l-2.444,-3.666c-2.451,-3.676 -7.418,-4.67 -11.094,-2.219l-17.344,11.563l1.143,2.285l-46.011,15.337c-11.691,3.897 -20.105,14.161 -21.633,26.389l-7.027,56.214l-0.407,-0.045c-2.586,-0.287 -4.914,1.576 -5.202,4.162l-0.726,6.536c-0.287,2.585 1.576,4.914 4.161,5.201l11.702,1.3l0,18.621c0,8.836 7.163,16 16,16l40,0l176,0l40,0c8.837,0 16,-7.164 16,-16l0,-18.621l11.702,-1.3c2.585,-0.288 4.449,-2.617 4.161,-5.202z"/>
   <path id="svg_7" fill="#FF4F4F" d="m378.503,356.012c-1.529,-12.228 -9.943,-22.492 -21.633,-26.389l-51.75,-17.25c-7.535,16.992 -49.119,31.628 -49.119,31.628l-16,16c0,0.063 -14.75,0 -16,0l-16,-16c0,0 -41.584,-14.635 -49.119,-31.628l-51.75,17.25c-11.691,3.897 -20.105,14.161 -21.633,26.389l-7.609,60.872l66.11,7.117l0,40l176,0l0,-40l67,0l-8.497,-67.989z"/>
   <g id="svg_8">
    <path id="svg_9" fill="#734A3E" d="m104.001,176c0,0 -16,-65.474 -16,-88c0,-48.333 40,-48 40,-48l0.007,-0.007c23.16,-39.326 111.993,-39.993 111.993,-39.993l8,16c44,-14 104,-16 104,-16s11.5,16 16,40c9.325,49.735 -8,136 -8,136l-256,0z"/>
   </g>
   <g id="svg_10">
    <path id="svg_11" fill="#623F33" d="m240.001,0c0,0 -88.5,0 -111.993,39.993l-0.007,0.007c0,0 -40,-0.333 -40,48c0,22.526 16,88 16,88l51.636,0l52.364,-72c0,0 80.667,-41.334 144,-104c0,0 -60,2 -104,16l-8,-16z"/>
   </g>
   <g id="svg_12">
    <path id="svg_13" fill="#E2A071" d="m280.001,274.001l-96,0l0,26.468c0,5.759 -3.186,10.831 -8.017,13.659c67.094,11.743 104.017,-40.127 104.017,-40.127z"/>
   </g>
   <path id="svg_14" fill="#FDC88E" d="m344.001,160l0,-16c0,-22.091 -17.909,-40 -40,-40l-144,0c-22.091,0 -40,17.909 -40,40l0,16c-13.255,0 -24,10.745 -24,24s10.745,24 24,24l0,8c0,19.377 11.651,36.854 29.538,44.308l51.691,21.538c9.75,4.063 20.208,6.154 30.77,6.154l0,0c10.562,0 21.019,-2.092 30.769,-6.154l51.694,-21.539c17.887,-7.452 29.538,-24.929 29.538,-44.307l0,-8c13.255,0 24,-10.745 24,-24s-10.745,-24 -24,-24z"/>
   <g id="svg_15">
    <path id="svg_16" fill="#623F33" d="m176.001,192l0,0c-4.4,0 -8,-3.6 -8,-8l0,-8c0,-4.4 3.6,-8 8,-8l0,0c4.4,0 8,3.6 8,8l0,8c0,4.4 -3.6,8 -8,8z"/>
   </g>
   <g id="svg_17">
    <path id="svg_18" fill="#623F33" d="m288.001,192l0,0c-4.4,0 -8,-3.6 -8,-8l0,-8c0,-4.4 3.6,-8 8,-8l0,0c4.4,0 8,3.6 8,8l0,8c0,4.4 -3.6,8 -8,8z"/>
   </g>
   <g id="svg_19">
    <g id="svg_20">
     <path id="svg_21" fill="#E2A071" d="m232.001,248.219c-14.223,0 -27.527,-3.5 -36.5,-9.605c-3.652,-2.484 -4.602,-7.461 -2.113,-11.113c2.48,-3.648 7.461,-4.598 11.113,-2.113c6.289,4.277 16.57,6.832 27.5,6.832s21.211,-2.555 27.5,-6.832c3.66,-2.492 8.629,-1.539 11.113,2.113c2.488,3.652 1.539,8.629 -2.113,11.113c-8.972,6.105 -22.277,9.605 -36.5,9.605z"/>
    </g>
   </g>
   <g id="svg_22">
    <path id="svg_23" fill="#F23F44" d="m144.001,430.04l0,-18.106c0,-7.697 -2.774,-15.135 -7.813,-20.953l-44.019,-50.813c-3.552,4.497 -5.93,9.93 -6.669,15.843l-8.356,66.847c12.724,0.764 46.568,4.729 66.857,7.182z"/>
   </g>
   <g id="svg_24">
    <path id="svg_25" fill="#D6343A" d="m144.001,419.507l-65.936,-7.326c-2.586,-0.287 -4.914,1.576 -5.202,4.161l-0.726,6.536c-0.287,2.585 1.576,4.914 4.161,5.201l67.703,7.523l0,-16.095z"/>
   </g>
   <g id="svg_26">
    <path id="svg_27" fill="#F23F44" d="m320.001,430.04l0,-18.106c0,-7.697 2.774,-15.135 7.813,-20.953l44.019,-50.813c3.552,4.497 5.93,9.93 6.669,15.843l8.356,66.847c-12.723,0.764 -46.568,4.729 -66.857,7.182z"/>
   </g>
   <g id="svg_28">
    <path id="svg_29" fill="#D6343A" d="m320.001,419.507l65.936,-7.326c2.586,-0.287 4.914,1.576 5.202,4.161l0.726,6.536c0.287,2.585 -1.576,4.914 -4.161,5.201l-67.703,7.523l0,-16.095z"/>
   </g>
   <g id="svg_30">
    <path id="svg_31" fill="#F23F44" d="m180.439,302.657l27.562,41.343l-24,32l-32,-64l17.344,-11.562c3.676,-2.451 8.643,-1.458 11.094,2.219z"/>
   </g>
   <g id="svg_32">
    <path id="svg_33" fill="#F23F44" d="m283.564,302.657l-27.563,41.343l24,32l32,-64l-17.344,-11.562c-3.676,-2.451 -8.642,-1.458 -11.093,2.219z"/>
   </g>
   <g id="svg_34">
    <path id="svg_35" fill="#F23F44" d="m232.001,424l0,0c-4.418,0 -8,-3.582 -8,-8l0,-56l16,0l0,56c0,4.419 -3.581,8 -8,8z"/>
   </g>
   <path id="svg_36" fill="#F6B47B" d="m161.997,243.723c-6.482,-6.95 -9.995,-16.121 -9.995,-25.625l0,-91.792c28.107,-3.121 89.334,-10.557 152,-22.307l-144.001,0c-2.754,0 -5.421,0.321 -8,0.881l0,-0.075c-18.257,3.707 -32,19.843 -32,39.194l0,16c-13.255,0 -24,10.745 -24,24s10.745,24 24,24l0,8c0,19.378 11.651,36.855 29.538,44.308l51.69,21.538c2.53,1.054 5.112,1.962 7.727,2.749c-22.844,-16.711 -38.05,-31.32 -46.959,-40.871z"/>
  </g>
  <g id="svg_37"/>
  <g id="svg_38"/>
  <g id="svg_39"/>
  <g id="svg_40"/>
  <g id="svg_41"/>
  <g id="svg_42"/>
  <g id="svg_43"/>
  <g id="svg_44"/>
  <g id="svg_45"/>
  <g id="svg_46"/>
  <g id="svg_47"/>
  <g id="svg_48"/>
  <g id="svg_49"/>
  <g id="svg_50"/>
  <g id="svg_51"/>
  <rect id="svg_58" height="49" width="52" y="161.500504" x="160.500488" stroke-opacity="null" stroke-width="1.5" stroke="null" fill="#fdc88e"/>
  <rect id="svg_59" height="54" width="45" y="155.500504" x="265.500488" stroke-opacity="null" stroke-width="1.5" stroke="null" fill="#fdc88e"/>
 </g>
</svg>