<?xml version="1.0" encoding="iso-8859-1"?>
<!-- Generator: Adobe Illustrator 19.0.0, SVG Export Plug-In . SVG Version: 6.00 Build 0)  -->
<svg version="1.1" id="Capa_1" xmlns="http://www.w3.org/2000/svg" xmlns:xlink="http://www.w3.org/1999/xlink" x="0px" y="0px"
	 viewBox="0 0 480 480" style="enable-background:new 0 0 480 480;" xml:space="preserve">
<path style="fill:#F4F4E6;" d="M8,52h464v288H8V52z"/>
<path style="fill:#FDBD40;" d="M88,220h48v176H88V220z"/>
<g>
	<path style="fill:#2D75BB;" d="M88,396h48v32H88V396z"/>
	<path style="fill:#2D75BB;" d="M136,220H88l24-56L136,220z"/>
</g>
<path style="fill:#FDBD40;" d="M184,132h112v112H184V132z"/>
<circle style="fill:#E9686A;" cx="296" cy="132" r="48"/>
<path style="fill:#2D75BB;" d="M200,316c-4.418,0.007-8.006-3.568-8.013-7.987c-0.006-3.345,2.071-6.341,5.205-7.509l64-24
	c1.931-0.722,4.066-0.67,5.96,0.144l51.368,22.016l60.208-52.68c3.148-3.1,8.213-3.061,11.313,0.087
	c3.1,3.148,3.061,8.213-0.087,11.313c-0.216,0.212-0.443,0.413-0.682,0.599l-64,56c-2.317,2.03-5.593,2.549-8.424,1.336
	L263.8,292.584l-60.992,22.88C201.91,315.805,200.96,315.986,200,316L200,316z"/>
<path style="fill:#E9686A;" d="M152,132H40c-4.418,0-8-3.582-8-8s3.582-8,8-8h112c4.418,0,8,3.582,8,8S156.418,132,152,132z"/>
<path style="fill:#2D75BB;" d="M400,148l-32,56h64L400,148z"/>
<path d="M472,44H8c-4.418,0-8,3.582-8,8v288c0,4.418,3.582,8,8,8h72v80c0,4.418,3.582,8,8,8h48c4.418,0,8-3.582,8-8v-80h328
	c4.418,0,8-3.582,8-8V52C480,47.582,476.418,44,472,44z M96,228h32v160H96V228z M100.136,212L112,184.312L123.864,212H100.136z
	 M128,420H96v-16h32V420z M464,332H144V220c0-0.112-0.064-0.208-0.064-0.328c-0.025-0.921-0.209-1.83-0.544-2.688v-0.12l-24-56
	c-1.742-4.06-6.446-5.94-10.506-4.198c-1.886,0.809-3.389,2.312-4.198,4.198l-24,56v0.12c-0.335,0.858-0.519,1.767-0.544,2.688
	c0,0.12-0.064,0.216-0.064,0.328v112H16V60h448V332z"/>
<path d="M184,252h112c4.418,0,8-3.582,8-8v-56.64c30.617-4.376,51.889-32.743,47.513-63.36s-32.743-51.889-63.36-47.513
	C263.518,80.008,244.161,99.364,240.64,124H184c-4.418,0-8,3.582-8,8v112C176,248.418,179.582,252,184,252L184,252z M288,171.2
	c-15.698-3.236-27.964-15.502-31.2-31.2H288V171.2z M296,92c22.091-0.022,40.018,17.868,40.04,39.96
	c0.019,19.038-13.383,35.452-32.04,39.24V132c0-4.418-3.582-8-8-8h-39.2C260.627,105.389,276.999,92.024,296,92z M192,140h48.64
	c3.566,24.528,22.832,43.794,47.36,47.36V236h-96V140z"/>
<path d="M378.728,245.984l-60.208,52.68l-51.368-22.016c-1.894-0.814-4.029-0.866-5.96-0.144l-64,24
	c-4.14,1.543-6.245,6.151-4.701,10.291c1.169,3.135,4.164,5.211,7.509,5.205c0.958-0.003,1.908-0.174,2.808-0.504l60.992-22.88
	l53.048,22.736c2.831,1.214,6.107,0.694,8.424-1.336l64-56c3.479-2.723,4.092-7.751,1.368-11.231
	c-2.723-3.479-7.751-4.092-11.231-1.369c-0.238,0.187-0.466,0.387-0.682,0.599V245.984z"/>
<path d="M40,132h112c4.418,0,8-3.582,8-8s-3.582-8-8-8H40c-4.418,0-8,3.582-8,8S35.582,132,40,132z"/>
<path d="M368,212h64c4.418,0.009,8.007-3.566,8.016-7.984c0.003-1.41-0.367-2.795-1.072-4.016l-32-56
	c-2.531-3.835-7.692-4.892-11.527-2.361c-0.939,0.619-1.742,1.423-2.361,2.361l-32,56c-2.209,3.826-0.898,8.719,2.928,10.928
	C365.205,211.633,366.59,212.003,368,212z M400,164.128L418.216,196h-36.432L400,164.128z"/>
<g>
</g>
<g>
</g>
<g>
</g>
<g>
</g>
<g>
</g>
<g>
</g>
<g>
</g>
<g>
</g>
<g>
</g>
<g>
</g>
<g>
</g>
<g>
</g>
<g>
</g>
<g>
</g>
<g>
</g>
</svg>
